<?xml version="1.0" encoding="utf-8"?>
<!-- Svg Vector Icons : http://www.onlinewebfonts.com/icon -->
<!DOCTYPE svg PUBLIC "-//W3C//DTD SVG 1.1//EN" "http://www.w3.org/Graphics/SVG/1.1/DTD/svg11.dtd">
<svg version="1.1" xmlns="http://www.w3.org/2000/svg" xmlns:xlink="http://www.w3.org/1999/xlink" x="0px" y="0px" viewBox="0 0 1000 1000" enable-background="new 0 0 1000 1000" xml:space="preserve">
<metadata> Svg Vector Icons : http://www.onlinewebfonts.com/icon </metadata>
<g><g transform="translate(0.000000,511.000000) scale(0.100000,-0.100000)"><path d="M2637.7,4977.1c-100.2-43.5-204.7-139.3-256.9-239.5c-39.2-76.2-47.9-132.8-54.4-396.3c-10.9-424.6,30.5-553,230.8-694.5c89.3-61,108.9-65.3,348.4-76.2l254.7-10.9l4.4-535.6l4.4-535.6l-566.1-603.1l-566.1-603.1l6.5-2508.2l6.5-2508.2l58.8-176.3c108.9-317.9,333.1-581.3,629.2-738.1c274.3-143.7,224.2-141.5,2255.6-141.5c1238.8,0,1870.2,8.7,1948.6,23.9c165.4,34.8,446.3,174.2,574.7,289.6c152.4,135,300.5,359.2,372.3,568.2l60.9,174.2l6.5,2512.5l6.5,2514.7l-568.3,568.3l-566.1,568.3l4.4,563.9l6.5,566.1l254.8,10.9c239.5,10.9,259.1,15.2,348.4,76.2c200.3,141.5,241.7,270,230.8,694.5c-6.5,263.4-15.3,320.1-54.4,396.3c-54.4,102.3-156.8,198.1-261.3,241.7C7255.6,5020.6,2735.7,5020.6,2637.7,4977.1z M7279.6,4628.7l60.9-52.3v-287.4v-287.4l-60.9-52.3l-61-52.2H5000H2781.4l-61,52.2l-61,52.3v287.4v287.4l61,52.3l61,52.2H5000h2218.6L7279.6,4628.7z M6502.3,3037.1v-533.4H5000H3497.7v533.4v533.4H5000h1502.3V3037.1z M7107.6,1669.9l505.1-505.1l-4.3-2462.4l-6.6-2460.3l-80.5-163.3c-126.3-256.9-346.2-437.6-616.2-507.3c-111-30.5-368-34.8-1885.5-34.8c-1088.6,0-1798.4,8.7-1870.2,21.8c-289.6,54.4-533.4,243.8-668.4,518.2l-82.7,165.5l-6.5,2460.3l-4.4,2462.4l472.5,507.3l474.6,505.1h1632.9h1632.9L7107.6,1669.9z"/><path d="M5331,812c-24-8.7-1005.9-1939.9-1005.9-1976.9c0-6.5,180.7-10.9,402.8-10.9c222.1,0,402.8-4.4,402.8-10.9c0-4.4-161.1-333.1-359.2-729.4c-198.1-396.3-359.2-733.7-359.2-751.2c0-63.1,52.3-139.3,111-163.3c137.2-56.6,141.5-47.9,668.4,999.4c267.8,529.1,481.2,968.9,474.6,975.4c-6.5,6.5-187.3,10.9-405,10.9c-233,0-391.9,6.5-391.9,19.6c0,10.9,161.1,344,359.2,738.1c198.1,394.1,359.3,735.9,359.3,759.9c0,74-82.7,154.6-158.9,152.4C5389.7,825.1,5346.2,818.6,5331,812z"/></g></g>
</svg>