<?xml version="1.0" encoding="iso-8859-1"?>
<!-- Uploaded to: SVG Repo, www.svgrepo.com, Generator: SVG Repo Mixer Tools -->
<svg fill="#000000" height="800px" width="800px" version="1.1" id="Capa_1" xmlns="http://www.w3.org/2000/svg" xmlns:xlink="http://www.w3.org/1999/xlink" 
	 viewBox="0 0 489.8 489.8" xml:space="preserve">
<g>
	<g>
		<g>
			<path d="M172.15,293.1L172.15,293.1h314.5l0,0c0-40.8-33-73.9-73.9-73.9h-166.7C205.25,219.2,172.15,252.3,172.15,293.1z"/>
			<path d="M246.05,489.8h166.8c40.8,0,73.9-33,73.9-73.9h-314.6C172.15,456.7,205.25,489.8,246.05,489.8z"/>
			<path d="M462.55,330h-266.3c-14,0-25.3,11.3-25.3,25.3s11.3,25.3,25.3,25.3h266.3c14,0,25.3-11.3,25.3-25.3
				S476.55,330,462.55,330z"/>
			<polygon points="343.15,0 28.35,0 1.95,61.4 369.25,61.4 			"/>
			<path d="M152.35,396.1h26c-15.9-7-26.8-22.5-26.8-41.2c0-19.4,12.4-36.2,29.9-42.4h-29.2v-19.8c0-51.7,42-93.7,93.7-93.7h92.1
				l12.4-118.6h-330l43.1,409.3h124.8C141.85,452.9,152.35,396.1,152.35,396.1z"/>
		</g>
	</g>
</g>
</svg>